<svg width="1200" height="520" viewBox="0 0 1200 520" fill="none" xmlns="http://www.w3.org/2000/svg">
  <defs><linearGradient id="bg" x1="0" y1="0" x2="1200" y2="520"><stop stop-color="#111827"/><stop offset="0.55" stop-color="#7f1d1d"/><stop offset="1" stop-color="#f97316"/></linearGradient><filter id="blur"><feGaussianBlur stdDeviation="30"/></filter></defs>
  <rect width="1200" height="520" rx="44" fill="url(#bg)"/>
  <circle cx="930" cy="150" r="180" fill="#fed7aa" opacity="0.2" filter="url(#blur)"/>
  <g transform="translate(130 112)"><rect width="440" height="278" rx="38" fill="#fff" opacity="0.12"/><circle cx="120" cy="142" r="72" fill="#fff" opacity="0.16"/><path d="M120 94v52l38 24" stroke="#fff" stroke-width="16" stroke-linecap="round"/><path d="M238 110h130M238 164h180M238 218h110" stroke="#fff" stroke-opacity="0.78" stroke-width="18" stroke-linecap="round"/></g>
  <g transform="translate(720 122)"><rect width="300" height="260" rx="36" fill="#fff" opacity="0.12"/><path d="M80 180c0-66 44-84 62-132 46 36 76 78 76 132 0 52-38 84-70 84s-68-32-68-84Z" fill="#fb923c"/><path d="M126 192c0-28 20-42 32-66 26 26 38 44 38 66 0 26-18 42-36 42s-34-16-34-42Z" fill="#fff" opacity="0.9"/></g>
  <text x="90" y="82" fill="#fed7aa" font-family="Inter,Arial" font-size="18" font-weight="900" letter-spacing="5">POMODORO • STREAK • FOCUS</text>
</svg>
