<svg width="1200" height="520" viewBox="0 0 1200 520" fill="none" xmlns="http://www.w3.org/2000/svg">
  <defs><linearGradient id="bg" x1="0" y1="0" x2="1200" y2="520"><stop stop-color="#0f172a"/><stop offset="0.45" stop-color="#4c1d95"/><stop offset="1" stop-color="#db2777"/></linearGradient><filter id="blur"><feGaussianBlur stdDeviation="28"/></filter></defs>
  <rect width="1200" height="520" rx="44" fill="url(#bg)"/>
  <circle cx="1000" cy="130" r="150" fill="#f0abfc" opacity="0.22" filter="url(#blur)"/>
  <circle cx="260" cy="410" r="190" fill="#60a5fa" opacity="0.18" filter="url(#blur)"/>
  <g transform="translate(120 110)"><rect width="460" height="280" rx="34" fill="#fff" opacity="0.12"/><path d="M70 90h300M70 142h360M70 194h240" stroke="#fff" stroke-opacity="0.82" stroke-width="20" stroke-linecap="round"/><rect x="70" y="220" width="150" height="38" rx="19" fill="#22d3ee" opacity="0.9"/></g>
  <g transform="translate(720 84)"><rect x="0" y="0" width="300" height="340" rx="42" fill="#fff" opacity="0.1"/><path d="M86 114h128M86 174h128M86 234h84" stroke="#fef3c7" stroke-width="18" stroke-linecap="round"/><circle cx="228" cy="112" r="26" fill="#fb7185"/><circle cx="228" cy="174" r="26" fill="#38bdf8"/><circle cx="188" cy="234" r="26" fill="#34d399"/></g>
  <text x="90" y="82" fill="#f5d0fe" font-family="Inter,Arial" font-size="18" font-weight="900" letter-spacing="5">NOTE • MARKDOWN • IDEAS</text>
</svg>
