<svg width="1200" height="420" viewBox="0 0 1200 420" fill="none" xmlns="http://www.w3.org/2000/svg">
  <defs><linearGradient id="g" x1="0" y1="0" x2="1200" y2="420"><stop stop-color="#111827"/><stop offset="0.5" stop-color="#7c3aed"/><stop offset="1" stop-color="#f97316"/></linearGradient></defs>
  <rect width="1200" height="420" rx="38" fill="url(#g)"/>
  <circle cx="1010" cy="110" r="150" fill="#fff" opacity="0.12"/>
  <circle cx="220" cy="330" r="180" fill="#fff" opacity="0.08"/>
  <g transform="translate(152 80)"><rect width="470" height="260" rx="30" fill="#fff" opacity="0.12"/><rect x="44" y="50" width="310" height="26" rx="13" fill="#fff" opacity="0.92"/><rect x="44" y="112" width="380" height="18" rx="9" fill="#fed7aa"/><rect x="44" y="152" width="330" height="18" rx="9" fill="#fdba74"/><rect x="44" y="198" width="160" height="34" rx="17" fill="#0f172a" opacity="0.9"/></g>
  <g transform="translate(740 96)" stroke="#fff" stroke-width="18" stroke-linecap="round"><path d="M0 72h220M0 142h180M0 212h120" opacity="0.7"/><circle cx="278" cy="72" r="22" fill="#fff" opacity="0.22" stroke="none"/><circle cx="238" cy="142" r="22" fill="#fff" opacity="0.22" stroke="none"/><circle cx="178" cy="212" r="22" fill="#fff" opacity="0.22" stroke="none"/></g>
</svg>
